<?xml version="1.0" standalone="no"?><!DOCTYPE svg PUBLIC "-//W3C//DTD SVG 1.1//EN" "http://www.w3.org/Graphics/SVG/1.1/DTD/svg11.dtd"><svg t="1633574869379" class="icon" viewBox="0 0 1024 1024" version="1.1" xmlns="http://www.w3.org/2000/svg" p-id="13403" xmlns:xlink="http://www.w3.org/1999/xlink" width="200" height="200"><defs><style type="text/css"></style></defs><path d="M609.6 521.664c157.12 33.056 263.872 150.464 317.28 347.776a32 32 0 1 1-61.76 16.736C808.448 676.896 692.416 576 512 576s-296.448 100.864-353.12 310.176a32 32 0 1 1-61.76-16.736c53.44-197.312 160.16-314.72 317.28-347.776a224 224 0 1 1 195.2 0zM512 480a160 160 0 1 0 0-320 160 160 0 0 0 0 320z" fill="#27A2DF" p-id="13404"></path></svg>