<?xml version="1.0" standalone="no"?><!DOCTYPE svg PUBLIC "-//W3C//DTD SVG 1.1//EN" "http://www.w3.org/Graphics/SVG/1.1/DTD/svg11.dtd"><svg t="1633438273201" class="icon" viewBox="0 0 1024 1024" version="1.1" xmlns="http://www.w3.org/2000/svg" p-id="15420" xmlns:xlink="http://www.w3.org/1999/xlink" width="200" height="200"><defs><style type="text/css"></style></defs><path d="M337 273.81a36 36 0 1 0-38-61.15 404.09 404.09 0 0 0-185.38 275.87 36 36 0 1 0 71 11.94A332.08 332.08 0 0 1 337 273.81zM724 811.53a331.57 331.57 0 0 1-425.2-1 36 36 0 1 0-46.27 55.17A403.61 403.61 0 0 0 770 866.91a36 36 0 1 0-46-55.38zM910.38 488.53A399.32 399.32 0 0 0 844 325.79a408.32 408.32 0 0 0-126.45-117.66 36 36 0 1 0-36.68 62 335.92 335.92 0 0 1 104 96.77 327.93 327.93 0 0 1 54.48 133.61 36 36 0 1 0 71-11.94zM180 559a116 116 0 1 0 116 116 116.13 116.13 0 0 0-116-116z m0 160a44 44 0 1 1 44-44 44.05 44.05 0 0 1-44 44zM844 559a116 116 0 1 0 116 116 116.13 116.13 0 0 0-116-116z m0 160a44 44 0 1 1 44-44 44.05 44.05 0 0 1-44 44zM512 63a116 116 0 1 0 116 116A116.13 116.13 0 0 0 512 63z m0 160a44 44 0 1 1 44-44 44.05 44.05 0 0 1-44 44z" p-id="15421"></path></svg>