<?xml version="1.0" standalone="no"?><!DOCTYPE svg PUBLIC "-//W3C//DTD SVG 1.1//EN" "http://www.w3.org/Graphics/SVG/1.1/DTD/svg11.dtd"><svg t="1633437402535" class="icon" viewBox="0 0 1024 1024" version="1.1" xmlns="http://www.w3.org/2000/svg" p-id="1094" xmlns:xlink="http://www.w3.org/1999/xlink" width="200" height="200"><defs><style type="text/css"></style></defs><path d="M511.58 242c45.34 0 91.83 11.39 138.18 33.86 41.07 19.91 81.48 48.09 120.12 83.74a615.67 615.67 0 0 1 85.45 97.21c15.6 22.22 24.69 38.86 29.33 48.74C880 515.45 871 532 855.8 553.88a616.55 616.55 0 0 1-84.33 97.47C713.71 705.48 621.74 770 511.58 770c-46.22 0-93.29-11.44-139.9-34-41.12-19.91-81.43-48.11-119.83-83.8a606.49 606.49 0 0 1-84.54-97.13c-15.55-22.44-24.53-39.2-29-49 4.56-9.82 13.69-26.64 29.55-49.24a616.37 616.37 0 0 1 85.46-97.21c38.64-35.65 79-63.83 120.11-83.74 46.31-22.49 92.8-33.88 138.15-33.88m0-72c-257 0-448 286-448 336 0 49 187 336 448 336 263 0 448-291 448-336 0-50-191-336-448-336z" p-id="1095"></path><path d="M511.58 424a88 88 0 1 1-88 88 88.1 88.1 0 0 1 88-88m0-72a160 160 0 1 0 160 160 160 160 0 0 0-160-160z" p-id="1096"></path></svg>