<?xml version="1.0" standalone="no"?><!DOCTYPE svg PUBLIC "-//W3C//DTD SVG 1.1//EN" "http://www.w3.org/Graphics/SVG/1.1/DTD/svg11.dtd"><svg t="1632844600856" class="icon" viewBox="0 0 1024 1024" version="1.1" xmlns="http://www.w3.org/2000/svg" p-id="1094" xmlns:xlink="http://www.w3.org/1999/xlink" width="200" height="200"><defs><style type="text/css"></style></defs><path d="M872 472H552V152a40 40 0 0 0-40-40 40 40 0 0 0-40 40v320H152a40 40 0 0 0-40 40 40 40 0 0 0 40 40h320v320a40 40 0 0 0 40 40 40 40 0 0 0 40-40V552h320a40 40 0 0 0 40-40 40 40 0 0 0-40-40z" p-id="1095"></path></svg>