<?xml version="1.0" standalone="no"?><!DOCTYPE svg PUBLIC "-//W3C//DTD SVG 1.1//EN" "http://www.w3.org/Graphics/SVG/1.1/DTD/svg11.dtd"><svg t="1633438471465" class="icon" viewBox="0 0 1024 1024" version="1.1" xmlns="http://www.w3.org/2000/svg" p-id="15558" xmlns:xlink="http://www.w3.org/1999/xlink" width="200" height="200"><defs><style type="text/css"></style></defs><path d="M889.18 180.37l-224-66.81a24 24 0 0 0-12.85-0.26L396.32 179l-245.51-53.23A32 32 0 0 0 112 157v666.2a32 32 0 0 0 25 31.22l255.27 57.33a24 24 0 0 0 11.17-0.15l253.89-64.24L870.68 912A32 32 0 0 0 912 881.4V211a32 32 0 0 0-22.82-30.63zM840 827.41l-180.93-54.77L433 829.84V516a36 36 0 0 0-72 0v314.94l-177-39.73V206.68L397.68 253 622 195.41V512a36 36 0 0 0 72 0V197.3l146 43.5z" p-id="15559"></path></svg>