<?xml version="1.0" standalone="no"?><!DOCTYPE svg PUBLIC "-//W3C//DTD SVG 1.1//EN" "http://www.w3.org/Graphics/SVG/1.1/DTD/svg11.dtd"><svg t="1633437623525" class="icon" viewBox="0 0 1024 1024" version="1.1" xmlns="http://www.w3.org/2000/svg" p-id="1233" xmlns:xlink="http://www.w3.org/1999/xlink" width="200" height="200"><defs><style type="text/css"></style></defs><path d="M512 676c-90.43 0-164-73.57-164-164s73.57-164 164-164 164 73.57 164 164-73.57 164-164 164z m0-256a92 92 0 1 0 92 92 92.1 92.1 0 0 0-92-92z" p-id="1234"></path><path d="M715.81 912H308.19a32 32 0 0 1-27.72-16L68.16 528a32 32 0 0 1 0-32l212.31-368a32 32 0 0 1 27.72-16h407.62a32 32 0 0 1 27.72 16l212.31 368a32 32 0 0 1 0 32L743.53 896a32 32 0 0 1-27.72 16z m-384.52-72h361.42l189.23-328-189.23-328H331.29L142.06 512z" p-id="1235"></path></svg>